<mxfile host="app.diagrams.net" modified="2024-01-08T05:17:36.305Z" agent="Mozilla/5.0 (Windows NT 10.0; Win64; x64) AppleWebKit/537.36 (KHTML, like Gecko) Chrome/120.0.0.0 Safari/537.36" etag="QKD4hwTWDLAykn1y7nC9" version="22.1.17" type="github">
  <diagram name="第 1 页" id="pUawU9Urm1kZyq6mz5tY">
    <mxGraphModel dx="1591" dy="757" grid="1" gridSize="10" guides="1" tooltips="1" connect="1" arrows="1" fold="1" page="1" pageScale="1" pageWidth="827" pageHeight="1169" math="0" shadow="0">
      <root>
        <mxCell id="0" />
        <mxCell id="1" parent="0" />
        <mxCell id="5t4nTABBPv9v1Nag6Ch_-11" value="" style="edgeStyle=orthogonalEdgeStyle;rounded=0;orthogonalLoop=1;jettySize=auto;html=1;shadow=1;" edge="1" parent="1" source="5t4nTABBPv9v1Nag6Ch_-6" target="5t4nTABBPv9v1Nag6Ch_-10">
          <mxGeometry relative="1" as="geometry">
            <mxPoint x="240" y="440" as="targetPoint" />
            <Array as="points" />
          </mxGeometry>
        </mxCell>
        <mxCell id="5t4nTABBPv9v1Nag6Ch_-6" value="" style="rounded=0;whiteSpace=wrap;html=1;shadow=1;" vertex="1" parent="1">
          <mxGeometry x="90" y="360" width="300" height="50" as="geometry" />
        </mxCell>
        <mxCell id="5t4nTABBPv9v1Nag6Ch_-13" value="" style="edgeStyle=orthogonalEdgeStyle;rounded=0;orthogonalLoop=1;jettySize=auto;html=1;shadow=1;" edge="1" parent="1" source="5t4nTABBPv9v1Nag6Ch_-10" target="5t4nTABBPv9v1Nag6Ch_-12">
          <mxGeometry relative="1" as="geometry" />
        </mxCell>
        <mxCell id="5t4nTABBPv9v1Nag6Ch_-10" value="" style="rounded=0;whiteSpace=wrap;html=1;shadow=1;" vertex="1" parent="1">
          <mxGeometry x="90" y="440" width="300" height="50" as="geometry" />
        </mxCell>
        <mxCell id="5t4nTABBPv9v1Nag6Ch_-15" value="" style="edgeStyle=orthogonalEdgeStyle;rounded=0;orthogonalLoop=1;jettySize=auto;html=1;shadow=1;" edge="1" parent="1" source="5t4nTABBPv9v1Nag6Ch_-12" target="5t4nTABBPv9v1Nag6Ch_-14">
          <mxGeometry relative="1" as="geometry" />
        </mxCell>
        <mxCell id="5t4nTABBPv9v1Nag6Ch_-12" value="" style="rounded=0;whiteSpace=wrap;html=1;shadow=1;" vertex="1" parent="1">
          <mxGeometry x="90" y="520" width="300" height="50" as="geometry" />
        </mxCell>
        <mxCell id="5t4nTABBPv9v1Nag6Ch_-28" style="edgeStyle=orthogonalEdgeStyle;rounded=0;orthogonalLoop=1;jettySize=auto;html=1;exitX=1;exitY=0.5;exitDx=0;exitDy=0;entryX=0;entryY=0.25;entryDx=0;entryDy=0;shadow=1;" edge="1" parent="1" source="5t4nTABBPv9v1Nag6Ch_-14" target="5t4nTABBPv9v1Nag6Ch_-18">
          <mxGeometry relative="1" as="geometry">
            <Array as="points">
              <mxPoint x="460" y="625" />
              <mxPoint x="460" y="373" />
            </Array>
          </mxGeometry>
        </mxCell>
        <mxCell id="5t4nTABBPv9v1Nag6Ch_-14" value="" style="rounded=0;whiteSpace=wrap;html=1;shadow=1;" vertex="1" parent="1">
          <mxGeometry x="90" y="600" width="300" height="50" as="geometry" />
        </mxCell>
        <mxCell id="5t4nTABBPv9v1Nag6Ch_-17" value="" style="edgeStyle=orthogonalEdgeStyle;rounded=0;orthogonalLoop=1;jettySize=auto;html=1;shadow=1;" edge="1" parent="1" source="5t4nTABBPv9v1Nag6Ch_-18" target="5t4nTABBPv9v1Nag6Ch_-20">
          <mxGeometry relative="1" as="geometry">
            <mxPoint x="790" y="440" as="targetPoint" />
            <Array as="points" />
          </mxGeometry>
        </mxCell>
        <mxCell id="5t4nTABBPv9v1Nag6Ch_-18" value="" style="rounded=0;whiteSpace=wrap;html=1;shadow=1;" vertex="1" parent="1">
          <mxGeometry x="640" y="360" width="300" height="50" as="geometry" />
        </mxCell>
        <mxCell id="5t4nTABBPv9v1Nag6Ch_-19" value="" style="edgeStyle=orthogonalEdgeStyle;rounded=0;orthogonalLoop=1;jettySize=auto;html=1;shadow=1;" edge="1" parent="1" source="5t4nTABBPv9v1Nag6Ch_-20" target="5t4nTABBPv9v1Nag6Ch_-22">
          <mxGeometry relative="1" as="geometry" />
        </mxCell>
        <mxCell id="5t4nTABBPv9v1Nag6Ch_-20" value="" style="rounded=0;whiteSpace=wrap;html=1;shadow=1;" vertex="1" parent="1">
          <mxGeometry x="640" y="440" width="300" height="50" as="geometry" />
        </mxCell>
        <mxCell id="5t4nTABBPv9v1Nag6Ch_-21" value="" style="edgeStyle=orthogonalEdgeStyle;rounded=0;orthogonalLoop=1;jettySize=auto;html=1;shadow=1;" edge="1" parent="1" source="5t4nTABBPv9v1Nag6Ch_-22" target="5t4nTABBPv9v1Nag6Ch_-23">
          <mxGeometry relative="1" as="geometry" />
        </mxCell>
        <mxCell id="5t4nTABBPv9v1Nag6Ch_-22" value="" style="rounded=0;whiteSpace=wrap;html=1;shadow=1;" vertex="1" parent="1">
          <mxGeometry x="640" y="520" width="300" height="50" as="geometry" />
        </mxCell>
        <mxCell id="5t4nTABBPv9v1Nag6Ch_-29" style="edgeStyle=orthogonalEdgeStyle;rounded=0;orthogonalLoop=1;jettySize=auto;html=1;exitX=0;exitY=0.5;exitDx=0;exitDy=0;entryX=0.5;entryY=0;entryDx=0;entryDy=0;shadow=1;" edge="1" parent="1" source="5t4nTABBPv9v1Nag6Ch_-23" target="5t4nTABBPv9v1Nag6Ch_-24">
          <mxGeometry relative="1" as="geometry" />
        </mxCell>
        <mxCell id="5t4nTABBPv9v1Nag6Ch_-23" value="" style="rounded=0;whiteSpace=wrap;html=1;shadow=1;" vertex="1" parent="1">
          <mxGeometry x="640" y="600" width="300" height="50" as="geometry" />
        </mxCell>
        <mxCell id="5t4nTABBPv9v1Nag6Ch_-24" value="" style="rounded=0;whiteSpace=wrap;html=1;shadow=1;" vertex="1" parent="1">
          <mxGeometry x="350" y="820" width="300" height="50" as="geometry" />
        </mxCell>
        <mxCell id="5t4nTABBPv9v1Nag6Ch_-25" value="" style="rounded=0;whiteSpace=wrap;html=1;shadow=1;" vertex="1" parent="1">
          <mxGeometry x="350" y="900" width="300" height="50" as="geometry" />
        </mxCell>
        <mxCell id="5t4nTABBPv9v1Nag6Ch_-31" value="&lt;font face=&quot;Palatino&quot; style=&quot;font-size: 18px;&quot;&gt;ModelⅠ:&lt;/font&gt;" style="text;html=1;align=center;verticalAlign=middle;resizable=0;points=[];autosize=1;strokeColor=none;fillColor=none;" vertex="1" parent="1">
          <mxGeometry x="155" y="675" width="100" height="40" as="geometry" />
        </mxCell>
        <mxCell id="5t4nTABBPv9v1Nag6Ch_-32" value="&lt;font face=&quot;Palatino&quot; style=&quot;font-size: 18px;&quot;&gt;Model Ⅲ:&lt;/font&gt;" style="text;html=1;align=center;verticalAlign=middle;resizable=0;points=[];autosize=1;strokeColor=none;fillColor=none;" vertex="1" parent="1">
          <mxGeometry x="445" y="980" width="110" height="40" as="geometry" />
        </mxCell>
        <mxCell id="5t4nTABBPv9v1Nag6Ch_-33" value="&lt;font face=&quot;Palatino&quot; style=&quot;font-size: 18px;&quot;&gt;Model Ⅱ:&lt;/font&gt;" style="text;html=1;align=center;verticalAlign=middle;resizable=0;points=[];autosize=1;strokeColor=none;fillColor=none;" vertex="1" parent="1">
          <mxGeometry x="735" y="675" width="110" height="40" as="geometry" />
        </mxCell>
      </root>
    </mxGraphModel>
  </diagram>
</mxfile>
